<?xml version="1.0" encoding="UTF-8"?>
<svg id="a" data-name="Layer 1" xmlns="http://www.w3.org/2000/svg" viewBox="0 0 81.329 81.33">
  <rect x=".5" y=".5" width="80.329" height="80.33" rx="28.346" ry="28.346" fill="#1b9497"/>
  <rect x=".5" y=".5" width="80.329" height="80.33" rx="28.346" ry="28.346" fill="none" stroke="#1b9497"/>
  <path d="M80.745,26.188c-1.341-14.408-13.454-25.688-28.212-25.688h-23.637C13.241.5.55,13.191.55,28.846v23.637c0,12.099,7.594,22.4,18.265,26.468,12.555-25.001,34.852-44.262,61.93-52.763" fill="#0b6074"/>
  <path d="M80.745,26.188c-1.341-14.408-13.454-25.688-28.212-25.688h-23.637C13.241.5.55,13.191.55,28.846v23.637c0,12.099,7.594,22.4,18.265,26.468,12.555-25.001,34.852-44.262,61.93-52.763Z" fill="none" stroke="#0b6074"/>
  <path d="M40.855,14.017q.154,0,.311,0c1.665.006,3.223.134,4.829.599.102.028.204.056.31.085,3.194.888,5.987,2.662,8.326,4.987.064.064.129.128.195.194,3.416,3.436,5.258,8.245,5.339,13.059-.048,8.292-5.951,17.334-9.97,24.325-.237.413-.474.827-.71,1.241-.868,1.518-1.75,3.028-2.653,4.526-.099.165-.199.33-.298.496-1.066,1.78-2.132,3.537-4.274,4.074-1.518.241-2.96.109-4.289-.7-1.356-.989-2.109-2.48-2.942-3.901-.116-.197-.233-.395-.349-.592-.289-.49-.576-.98-.864-1.47-.227-.386-.455-.772-.682-1.158q-13.091-22.239-10.848-31.525c.834-3.163,2.448-5.906,4.656-8.296.111-.122.222-.245.337-.371,3.494-3.679,8.57-5.588,13.576-5.574ZM35.029,26.953c-1.334,1.742-1.983,3.797-1.705,5.988.441,2.22,1.484,4.03,3.377,5.3,1.889,1.112,3.808,1.488,5.968,1.091,2.323-.668,3.886-1.971,5.107-4.018.925-1.84,1.016-3.965.415-5.915-.807-2.123-2.26-3.61-4.294-4.574-3.184-1.271-6.565-.43-8.868,2.128Z" fill="#edeadb"/>
</svg>